<svg width="178" height="160" viewBox="0 0 178 160" fill="none" xmlns="http://www.w3.org/2000/svg">
<path d="M121.709 128.7C120.952 133.213 117.156 133.213 113.485 133.213H111.396L112.861 124.786C112.95 124.277 113.433 123.902 114.001 123.902H114.958C117.458 123.902 119.818 123.902 121.035 125.194C121.763 125.968 121.984 127.115 121.709 128.7ZM120.111 116.924H106.265C105.318 116.924 104.513 117.55 104.365 118.399L98.7663 150.641C98.6557 151.277 99.1973 151.852 99.9061 151.852H107.01C107.672 151.852 108.237 151.414 108.34 150.82L109.928 141.679C110.075 140.83 110.881 140.205 111.828 140.205H116.209C125.329 140.205 130.592 136.196 131.968 128.252C132.587 124.777 131.993 122.047 130.202 120.136C128.232 118.035 124.742 116.924 120.111 116.924Z" fill="#459ADB"/>
<path d="M22.9568 128.7C22.2 133.213 18.4043 133.213 14.7331 133.213H12.6443L14.1095 124.786C14.198 124.277 14.6817 123.902 15.2495 123.902H16.2069C18.706 123.902 21.0667 123.902 22.2835 125.194C23.0115 125.968 23.2319 127.115 22.9568 128.7ZM21.3591 116.924H7.51322C6.56653 116.924 5.76053 117.55 5.61304 118.399L0.0143678 150.641C-0.0961785 151.277 0.445248 151.852 1.1545 151.852H7.76516C8.71185 151.852 9.51782 151.227 9.6653 150.377L11.1763 141.679C11.3235 140.83 12.1295 140.205 13.0762 140.205H17.4576C26.5772 140.205 31.8407 136.196 33.2163 128.252C33.8355 124.777 33.2411 122.047 31.4501 120.136C29.4808 118.035 25.9911 116.924 21.3591 116.924Z" fill="#253B7D"/>
<path d="M53.5028 140.275C52.8624 143.715 49.8553 146.024 46.0196 146.024C44.0968 146.024 42.5575 145.463 41.5678 144.399C40.5869 143.345 40.2179 141.843 40.5289 140.17C41.1259 136.761 44.1812 134.377 47.9587 134.377C49.8412 134.377 51.3701 134.943 52.3787 136.017C53.3945 137.098 53.7935 138.61 53.5028 140.275ZM62.7422 128.555H56.1127C55.5444 128.555 55.0608 128.931 54.9726 129.44L54.6809 131.124L54.2173 130.514C52.7815 128.621 49.5817 127.989 46.3864 127.989C39.0622 127.989 32.805 133.03 31.5873 140.099C30.9533 143.627 31.8533 146.997 34.0552 149.35C36.0785 151.511 38.9657 152.411 42.4055 152.411C48.3092 152.411 51.5838 148.967 51.5838 148.967L51.2879 150.64C51.1768 151.276 51.7183 151.852 52.4278 151.852H58.3983C59.3447 151.852 60.1507 151.227 60.2982 150.378L63.8824 129.766C63.9932 129.13 63.4515 128.555 62.7422 128.555Z" fill="#253B7D"/>
<path d="M152.255 140.275C151.615 143.715 148.607 146.024 144.772 146.024C142.849 146.024 141.31 145.463 140.32 144.399C139.339 143.345 138.97 141.843 139.281 140.17C139.878 136.761 142.934 134.377 146.711 134.377C148.594 134.377 150.122 134.943 151.131 136.017C152.147 137.098 152.545 138.61 152.255 140.275ZM161.495 128.555H154.865C154.297 128.555 153.813 128.931 153.725 129.44L153.433 131.124L152.97 130.514C151.534 128.621 148.334 127.989 145.139 127.989C137.814 127.989 131.557 133.03 130.339 140.099C129.705 143.627 130.605 146.997 132.808 149.35C134.83 151.511 137.718 152.411 141.157 152.411C147.061 152.411 150.336 148.967 150.336 148.967L150.04 150.64C149.929 151.276 150.471 151.852 151.18 151.852H157.151C158.097 151.852 158.903 151.227 159.051 150.378L162.634 129.766C162.745 129.13 162.203 128.555 161.495 128.555Z" fill="#459ADB"/>
<path d="M98.0521 128.555H91.3881C90.7507 128.555 90.1545 128.843 89.7969 129.321L80.6046 141.616L76.7088 129.801C76.4651 129.063 75.7158 128.555 74.8661 128.555H68.3153C67.5242 128.555 66.9679 129.262 67.2226 129.942L74.5606 149.502L67.6587 158.346C67.1171 159.04 67.6638 160 68.6003 160H75.2578C75.8888 160 76.4799 159.719 76.8388 159.248L99.0008 130.201C99.5308 129.506 98.9834 128.555 98.0521 128.555Z" fill="#253B7D"/>
<path d="M169.306 117.809L163.624 150.641C163.514 151.277 164.055 151.852 164.764 151.852H170.479C171.425 151.852 172.231 151.227 172.379 150.377L177.982 118.136C178.093 117.499 177.551 116.924 176.842 116.924H170.446C169.878 116.924 169.394 117.3 169.306 117.809Z" fill="#459ADB"/>
<path d="M132.168 26.5029C133.57 18.3872 132.158 12.865 127.325 7.8633C122.003 2.35629 112.39 -0.00293732 100.09 -0.00293732H64.3853C61.8712 -0.00293732 59.7309 1.65828 59.3392 3.91354L44.4717 89.5327C44.1782 91.2219 45.6161 92.7494 47.4992 92.7494H69.5411L68.02 101.511C67.7633 102.989 69.0207 104.325 70.6686 104.325H89.2475C91.4465 104.325 93.3188 102.872 93.6616 100.9L93.8436 100.042L97.3438 79.8861L97.5696 78.7722C97.9117 76.7996 99.784 75.3464 101.983 75.3464H104.763C122.762 75.3464 136.855 68.705 140.973 49.4994C142.694 41.4743 141.804 34.7751 137.254 30.066C135.877 28.6413 134.165 27.4638 132.168 26.5029Z" fill="#459ADB"/>
<path d="M132.168 26.5028C133.57 18.3871 132.158 12.8649 127.325 7.86317C122.003 2.35616 112.39 -0.00306702 100.09 -0.00306702H64.3853C61.8712 -0.00306702 59.7309 1.65815 59.3392 3.91341L44.4717 89.5326C44.1782 91.2218 45.6161 92.7493 47.4992 92.7493H69.5411L75.0782 60.8638L74.9065 61.8632C75.2982 59.6085 77.4207 57.9473 79.9342 57.9473H90.4103C110.985 57.9473 127.095 50.3562 131.803 28.4017C131.942 27.7516 132.061 27.1219 132.168 26.5028Z" fill="#232D62"/>
<path d="M81.0263 26.6103C81.2617 25.254 82.2201 24.1435 83.5109 23.5816C84.0975 23.3264 84.7529 23.1844 85.4405 23.1844H113.428C116.743 23.1844 119.835 23.3813 122.661 23.7948C123.469 23.9134 124.255 24.0489 125.019 24.2025C125.782 24.3567 126.523 24.5285 127.241 24.7195C127.6 24.8141 127.952 24.914 128.299 25.0186C129.687 25.4374 130.979 25.9309 132.168 26.5028C133.57 18.3871 132.158 12.8649 127.325 7.86317C122.003 2.35616 112.39 -0.00306702 100.09 -0.00306702H64.3853C61.8712 -0.00306702 59.7309 1.65815 59.3392 3.91341L44.4717 89.5326C44.1782 91.2218 45.6161 92.7493 47.4992 92.7493H69.5411L75.0782 60.8638L81.0263 26.6103Z" fill="#253B7D"/>
</svg>
