<svg width="23" height="22" viewBox="0 0 23 22" fill="none" xmlns="http://www.w3.org/2000/svg">
<g clipPath="url(#clip0_20_765)">
<path d="M16.061 0H6.9818C3.29195 0 0.290039 2.86689 0.290039 6.39079V15.0616C0.290039 18.5855 3.29195 21.4524 6.9818 21.4524H16.061C19.7508 21.4524 22.7528 18.5855 22.7528 15.0616V6.39079C22.7527 2.86689 19.7508 0 16.061 0ZM20.493 15.0616C20.493 17.3992 18.5087 19.2943 16.061 19.2943H6.9818C4.53409 19.2943 2.54979 17.3992 2.54979 15.0616V6.39079C2.54979 4.05313 4.53409 2.15811 6.9818 2.15811H16.061C18.5087 2.15811 20.493 4.05313 20.493 6.39079V15.0616Z" fill="#025FA7"/>
<path d="M11.5216 5.17773C8.31812 5.17773 5.71191 7.66672 5.71191 10.726C5.71191 13.7854 8.31812 16.2744 11.5216 16.2744C14.725 16.2744 17.3312 13.7854 17.3312 10.726C17.3312 7.66668 14.725 5.17773 11.5216 5.17773ZM11.5216 14.1163C9.56099 14.1163 7.97166 12.5985 7.97166 10.7261C7.97166 8.85369 9.56103 7.33584 11.5216 7.33584C13.4821 7.33584 15.0715 8.85369 15.0715 10.7261C15.0715 12.5984 13.4821 14.1163 11.5216 14.1163Z" fill="#025FA7"/>
<path d="M17.3423 6.54914C18.1111 6.54914 18.7344 5.9539 18.7344 5.21964C18.7344 4.48537 18.1111 3.89014 17.3423 3.89014C16.5735 3.89014 15.9502 4.48537 15.9502 5.21964C15.9502 5.9539 16.5735 6.54914 17.3423 6.54914Z" fill="#025FA7"/>
</g>
<defs>
<clipPath id="clip0_20_765">
<rect width="22.4627" height="21.4524" fill="white" transform="translate(0.290039)"/>
</clipPath>
</defs>
</svg>
