<svg width="100" height="100" viewBox="0 0 100 100" fill="none" xmlns="http://www.w3.org/2000/svg">
<circle cx="50" cy="50" r="50" fill="#025FA7"/>
<g clipPath="url(#clip0_1_300)">
<path d="M77.8332 26.3943C77.4195 26.3943 77.0236 26.5095 76.6553 26.7377C76.1775 27.0342 75.4906 27.1975 74.7214 27.1975C74.081 27.1975 73.3999 27.0895 72.6964 26.877C71.7712 26.5971 70.6826 25.6017 69.4622 23.92C69.045 23.344 68.3589 22.9999 67.6269 22.9999C66.9068 22.9999 66.2319 23.3403 65.8218 23.9096C64.6065 25.5954 63.5158 26.5937 62.5798 26.8768C61.8868 27.0865 61.1422 27.1973 60.4272 27.1973C59.5843 27.1973 58.8041 27.0384 58.3407 26.7725C58.0981 26.6332 57.5973 26.3994 56.9691 26.3994C55.6396 26.3994 54.5982 27.4632 54.5982 28.8211V35.5116L46.5133 34.026C46.1034 33.9508 45.5651 33.9093 44.9978 33.9093C44.4305 33.9093 43.8923 33.9508 43.4825 34.026L22.9437 37.8C22.6597 37.8523 21.7958 38.011 21.7924 38.7496C21.7889 39.4881 22.6511 39.6552 22.9346 39.7103L42.4902 43.4971C43.2788 43.6498 44.1349 43.8008 44.4391 43.8412L45.5112 43.8472L45.5572 43.8412C45.8612 43.8009 46.7171 43.6499 47.5055 43.4971L54.6491 42.1138C54.8114 43.5596 55.3653 45.0113 56.2911 46.4377L48.3634 47.9729C47.6134 48.1181 46.3872 48.3062 45.6374 48.3915C45.6357 48.3916 45.4716 48.4067 44.998 48.4067C44.5334 48.4067 44.3664 48.3922 44.3653 48.3922C44.3653 48.3922 44.3653 48.3922 44.3655 48.3922C43.6085 48.3061 42.3821 48.1181 41.6322 47.9728L23.2253 44.4083C23.0945 44.3831 22.9627 44.3702 22.8333 44.3702C21.7882 44.3704 21 45.1759 21 46.244V71.4744C21 72.5921 21.8596 73.6341 22.9569 73.8468L43.4782 77.8208C43.8896 77.9002 44.4292 77.9443 44.9978 77.9443C45.5664 77.9443 46.1061 77.9002 46.5176 77.8208L67.039 73.8468C68.1362 73.6341 68.9958 72.5921 68.9958 71.4744V54.0091C69.3239 53.852 69.7178 53.6477 70.1967 53.3808C71.1401 52.855 72.5805 51.9803 74.0869 50.7991C77.9553 47.7659 80 44.4532 80 41.2197V28.6837C80 27.1966 78.8836 26.3943 77.8332 26.3943ZM75.7664 41.2198C75.7664 45.1526 69.405 49.1184 67.2528 50.1562C65.1999 49.2087 58.8318 45.2915 58.8318 41.2198V31.3127C59.3397 31.391 59.8736 31.431 60.4272 31.431C61.5522 31.431 62.7204 31.2575 63.8055 30.929C65.3412 30.4646 66.6185 29.4513 67.6407 28.3699C68.6649 29.4517 69.942 30.4665 71.4708 30.929C72.5718 31.262 73.6655 31.431 74.7214 31.431C75.077 31.431 75.426 31.4115 75.7664 31.3731V41.2198Z" fill="#F3F3F3"/>
</g>
<defs>
<clipPath id="clip0_1_300">
<rect width="59" height="59" fill="white" transform="translate(20 20)"/>
</clipPath>
</defs>
</svg>
