<svg width="103" height="100" viewBox="0 0 103 100" fill="none" xmlns="http://www.w3.org/2000/svg">
<path d="M51.8566 0C23.6136 0 0.717773 22.386 0.717773 49.9992C0.717773 77.6114 23.6136 100 51.8562 100C80.0989 100 102.997 77.6124 102.997 49.9992C102.996 22.386 80.0996 0 51.8566 0ZM73.3792 65.0999C73.3792 66.0812 72.234 66.9092 70.8801 66.9092H26.4651C25.1106 66.9092 23.9661 66.0809 23.9661 65.0999V44.0019C23.9661 43.0216 25.1103 42.1926 26.4651 42.1926H70.8798C72.2336 42.1926 73.3788 43.0216 73.3788 44.0019V65.0999H73.3792ZM82.2215 56.4527C82.2212 57.434 81.076 58.263 79.7222 58.263H78.684V44.0016C78.684 40.144 75.1834 37.005 70.8798 37.005H32.8088V35.3554C32.8088 34.3751 33.953 33.5461 35.3078 33.5461H79.7225C81.0763 33.5461 82.2215 34.3751 82.2215 35.3554V56.4527Z" fill="#025FA7"/>
<path d="M48.2236 52.7344C46.1545 52.4924 45.1702 52.2217 45.1702 51.3451C45.1702 49.9834 47.2093 49.8364 48.0865 49.8364C49.3827 49.8364 50.8153 50.4468 51.2797 51.1971L51.4839 51.5281L54.5345 50.1474L54.3354 49.7508C53.285 47.6508 51.429 47.0075 49.9858 46.7448V44.8809H46.4187V46.7345C43.3408 47.2125 41.5175 48.9158 41.5175 51.3451C41.5175 55.3547 45.3516 55.7733 47.8867 56.05C50.1266 56.3093 51.2149 56.8513 51.2149 57.7073C51.2149 59.3956 48.7558 59.5263 48.0016 59.5263C46.3048 59.5263 44.6724 58.7076 44.2047 57.6216L44.0322 57.2223L40.7241 58.5933L40.8984 58.992C41.8117 61.0843 43.7642 62.4052 46.4187 62.7416V64.7489H49.9858V62.6412C52.5415 62.3232 54.9934 60.7169 54.9934 57.7066C54.9944 53.5487 50.9203 53.0587 48.2236 52.7344Z" fill="#025FA7"/>
</svg>
