<svg width="23" height="22" viewBox="0 0 23 22" fill="none" xmlns="http://www.w3.org/2000/svg">
<g clip-path="url(#clip0_32_316)">
<path d="M21.9697 11C21.9697 5.11328 17.2002 0.34375 11.3135 0.34375C5.42676 0.34375 0.657227 5.11328 0.657227 11C0.657227 16.3187 4.55406 20.7273 9.64844 21.5273V14.0804H6.94141V11H9.64844V8.65219C9.64844 5.98168 11.2383 4.50656 13.6733 4.50656C14.8395 4.50656 16.0589 4.71453 16.0589 4.71453V7.33563H14.7149C13.3914 7.33563 12.9785 8.15719 12.9785 8.9998V11H15.9339L15.4613 14.0804H12.9785V21.5273C18.0729 20.7273 21.9697 16.3187 21.9697 11Z" fill="white"/>
</g>
<defs>
<clipPath id="clip0_32_316">
<rect x="0.313477" width="22" height="22" rx="11" fill="white"/>
</clipPath>
</defs>
</svg>
