<svg width="187" height="160" viewBox="0 0 187 160" fill="none" xmlns="http://www.w3.org/2000/svg">
<path d="M-0.336914 138.702H11.4284C13.9681 138.702 15.8858 139.271 17.1816 140.362C18.4773 141.5 19.0993 143.066 19.0993 145.105C19.0993 147.24 18.4255 148.9 17.0261 150.086C15.6267 151.272 13.5016 151.889 10.651 151.889H6.76377V159.668H-0.336914V138.702ZM6.76377 147.667H8.47415C9.82172 147.667 10.8065 147.43 11.3248 147.003C11.8949 146.576 12.1541 146.007 12.1541 145.343C12.1541 144.679 11.8949 144.109 11.4284 143.682C10.962 143.208 10.029 143.018 8.7333 143.018H6.71194V147.667H6.76377Z" fill="#5FBA46"/>
<path d="M22.4688 144.488H28.4292V146.955C28.9993 145.864 29.5694 145.152 30.1914 144.726C30.8133 144.299 31.539 144.109 32.4719 144.109C33.4048 144.109 34.4414 144.393 35.5299 144.915L33.5603 149.042C32.8347 148.758 32.2128 148.615 31.7981 148.615C30.9688 148.615 30.2951 148.947 29.8804 149.564C29.2066 150.465 28.8956 152.125 28.8956 154.545V159.62H22.5206V144.488H22.4688Z" fill="#5FBA46"/>
<path d="M36.8242 138.701H43.1993V142.686H36.8242V138.701ZM36.8242 144.488H43.1993V159.668H36.8242V144.488Z" fill="#5FBA46"/>
<path d="M45.377 144.489H52.0112L55.2246 154.118L58.5417 144.489H64.9686L57.9198 159.668H52.2703L45.377 144.489Z" fill="#5FBA46"/>
<path d="M72.5882 149.422L66.5241 148.853C66.7314 147.857 67.0942 147.098 67.5088 146.576C67.9235 146.007 68.5454 145.532 69.3747 145.105C69.9448 144.821 70.7741 144.584 71.7589 144.441C72.7955 144.299 73.8839 144.204 75.076 144.204C76.9937 144.204 78.4968 144.299 79.6888 144.489C80.8291 144.678 81.8139 145.105 82.5913 145.722C83.1096 146.149 83.5761 146.766 83.8871 147.525C84.198 148.331 84.3535 149.043 84.3535 149.754V156.442C84.3535 157.154 84.4054 157.723 84.509 158.103C84.6127 158.53 84.82 159.004 85.1828 159.668H79.2224C78.9632 159.289 78.8077 158.957 78.7559 158.767C78.7041 158.577 78.6004 158.245 78.5486 157.818C77.7193 158.53 76.89 159.099 76.0608 159.383C74.9205 159.81 73.6248 160 72.1217 160C70.1522 160 68.6491 159.573 67.6125 158.719C66.5759 157.866 66.0576 156.869 66.0576 155.636C66.0576 154.498 66.4204 153.549 67.146 152.79C67.8717 152.031 69.2711 151.509 71.2406 151.13C73.6248 150.703 75.1797 150.371 75.9053 150.228C76.6309 150.039 77.3565 149.801 78.134 149.517C78.134 148.805 77.9785 148.284 77.6675 147.999C77.3565 147.714 76.7864 147.572 75.9571 147.572C74.9205 147.572 74.1431 147.714 73.6248 148.046C73.2101 148.331 72.8473 148.758 72.5882 149.422ZM78.134 152.458C77.2528 152.743 76.3717 152.98 75.387 153.217C74.0912 153.549 73.262 153.834 72.951 154.166C72.5882 154.498 72.4327 154.83 72.4327 155.257C72.4327 155.731 72.5882 156.11 72.951 156.395C73.3138 156.68 73.8321 156.822 74.5059 156.822C75.2315 156.822 75.8534 156.68 76.4754 156.348C77.0974 156.016 77.512 155.636 77.7711 155.209C78.0303 154.735 78.134 154.166 78.134 153.454V152.458Z" fill="#5FBA46"/>
<path d="M95.2894 138.701V144.488H98.8139V148.757H95.2894V154.118C95.2894 154.782 95.3413 155.209 95.4968 155.398C95.7041 155.731 96.0669 155.873 96.5852 155.873C97.0517 155.873 97.7254 155.731 98.5547 155.493L99.0212 159.525C97.4663 159.857 95.9632 160 94.6156 160C93.0089 160 91.8687 159.81 91.0912 159.43C90.3656 159.051 89.7955 158.482 89.4327 157.723C89.0699 156.964 88.9144 155.731 88.9144 154.023V148.663H86.582V144.393H88.9144V141.69L95.2894 138.701Z" fill="#5FBA46"/>
<path d="M102.235 138.701H115.504C117.733 138.701 119.391 139.223 120.583 140.219C121.775 141.215 122.345 142.449 122.345 143.919C122.345 145.152 121.931 146.243 121.101 147.097C120.531 147.666 119.702 148.141 118.614 148.52C120.272 148.9 121.464 149.516 122.242 150.37C123.019 151.272 123.382 152.363 123.382 153.691C123.382 154.782 123.123 155.778 122.553 156.632C121.983 157.486 121.257 158.197 120.272 158.672C119.702 159.004 118.769 159.193 117.577 159.336C115.97 159.525 114.934 159.62 114.415 159.62H102.184V138.701H102.235ZM109.388 146.955H112.446C113.534 146.955 114.312 146.765 114.726 146.433C115.141 146.101 115.4 145.579 115.4 144.915C115.4 144.299 115.193 143.824 114.726 143.492C114.312 143.16 113.534 142.97 112.446 142.97H109.336V146.955H109.388ZM109.388 155.161H113.016C114.26 155.161 115.089 154.972 115.608 154.545C116.126 154.165 116.333 153.596 116.333 152.932C116.333 152.315 116.074 151.793 115.608 151.461C115.089 151.082 114.26 150.892 113.016 150.892H109.44V155.161H109.388Z" fill="#5FBA46"/>
<path d="M132.503 149.422L126.439 148.853C126.646 147.857 127.009 147.098 127.424 146.576C127.839 146.007 128.46 145.532 129.29 145.105C129.86 144.821 130.689 144.584 131.674 144.441C132.711 144.299 133.799 144.204 134.991 144.204C136.909 144.204 138.412 144.299 139.604 144.489C140.744 144.678 141.729 145.105 142.506 145.722C143.025 146.149 143.491 146.766 143.802 147.525C144.113 148.331 144.269 149.043 144.269 149.754V156.442C144.269 157.154 144.32 157.723 144.424 158.103C144.528 158.53 144.735 159.004 145.098 159.668H139.137C138.878 159.289 138.723 158.957 138.671 158.767C138.619 158.577 138.515 158.245 138.464 157.818C137.634 158.53 136.805 159.099 135.976 159.383C134.836 159.81 133.54 160 132.037 160C130.067 160 128.564 159.573 127.528 158.719C126.491 157.866 125.973 156.869 125.973 155.636C125.973 154.498 126.335 153.549 127.061 152.79C127.787 152.031 129.186 151.509 131.156 151.13C133.54 150.703 135.095 150.371 135.82 150.228C136.546 150.039 137.272 149.801 138.049 149.517C138.049 148.805 137.894 148.284 137.583 147.999C137.272 147.714 136.701 147.572 135.872 147.572C134.836 147.572 134.058 147.714 133.54 148.046C133.073 148.331 132.762 148.758 132.503 149.422ZM138.049 152.458C137.168 152.743 136.287 152.98 135.302 153.217C134.006 153.549 133.177 153.834 132.866 154.166C132.503 154.498 132.348 154.83 132.348 155.257C132.348 155.731 132.503 156.11 132.866 156.395C133.229 156.68 133.747 156.822 134.421 156.822C135.147 156.822 135.768 156.68 136.39 156.348C137.012 156.016 137.427 155.636 137.686 155.209C137.945 154.735 138.049 154.166 138.049 153.454V152.458Z" fill="#5FBA46"/>
<path d="M148.051 144.488H153.959V146.955C154.84 145.959 155.722 145.2 156.655 144.773C157.536 144.346 158.676 144.109 159.972 144.109C161.734 144.109 163.133 144.583 164.118 145.532C165.103 146.481 165.621 147.951 165.621 149.991V159.668H159.246V151.319C159.246 150.37 159.039 149.706 158.676 149.279C158.313 148.9 157.743 148.663 157.069 148.663C156.292 148.663 155.67 148.947 155.203 149.469C154.737 149.991 154.478 150.94 154.478 152.363V159.668H148.103V144.488H148.051Z" fill="#5FBA46"/>
<path d="M169.406 138.701H175.937V149.564L180.653 144.488H188.48L182.519 149.801L188.842 159.668H181.69L178.321 153.596L175.937 155.731V159.668H169.406V138.701Z" fill="#5FBA46"/>
<path d="M77.3048 77.3203H23.0908V126.938H77.3048V77.3203Z" fill="#231F20"/>
<path d="M23.1426 0V61.7611H37.4994C75.2315 61.7611 94.3567 79.2648 94.3567 113.798V126.937H161.839V0H23.1426ZM133.177 26.2793C133.177 43.1189 133.177 83.866 133.177 100.706C127.994 100.706 127.113 100.706 122.137 100.706C117.369 63.8957 92.0762 40.7471 51.8563 36.383C51.8563 31.7818 51.8563 30.9754 51.8563 26.2318C70.2558 26.2793 114.778 26.2793 133.177 26.2793Z" fill="#5FBA46"/>
</svg>
