<svg width="20" height="20" viewBox="0 0 20 20" fill="none" xmlns="http://www.w3.org/2000/svg">
<path d="M14.0346 0.462891H5.95501C2.6714 0.462891 0 3.03163 0 6.18904V13.9581C0 17.1155 2.6714 19.6842 5.95501 19.6842H14.0346C17.3182 19.6842 19.9896 17.1155 19.9896 13.9581V6.18904C19.9896 3.03163 17.3182 0.462891 14.0346 0.462891ZM17.9786 13.9581C17.9786 16.0526 16.2128 17.7506 14.0346 17.7506H5.95501C3.77678 17.7506 2.01095 16.0526 2.01095 13.9581V6.18904C2.01095 4.09449 3.77678 2.39656 5.95501 2.39656H14.0346C16.2128 2.39656 17.9786 4.09449 17.9786 6.18904V13.9581Z" fill="white"/>
<path d="M9.99521 5.10254C7.14446 5.10254 4.8252 7.33267 4.8252 10.0738C4.8252 12.815 7.14446 15.0451 9.99521 15.0451C12.846 15.0451 15.1652 12.815 15.1652 10.0738C15.1652 7.33263 12.846 5.10254 9.99521 5.10254ZM9.99521 13.1115C8.25049 13.1115 6.83615 11.7515 6.83615 10.0739C6.83615 8.3962 8.25053 7.03621 9.99521 7.03621C11.7399 7.03621 13.1543 8.3962 13.1543 10.0739C13.1543 11.7515 11.7399 13.1115 9.99521 13.1115Z" fill="white"/>
<path d="M15.1744 6.33071C15.8586 6.33071 16.4132 5.79738 16.4132 5.13948C16.4132 4.48158 15.8586 3.94824 15.1744 3.94824C14.4902 3.94824 13.9355 4.48158 13.9355 5.13948C13.9355 5.79738 14.4902 6.33071 15.1744 6.33071Z" fill="white"/>
</svg>
